<svg xmlns="http://www.w3.org/2000/svg" width="1600" height="980" viewBox="0 0 1600 980">
  <defs>
    <symbol id="hike" viewBox="0 0 48 48">
      <circle cx="19.8" cy="8.3" r="2.8" fill="currentColor"/>
      <g fill="none" stroke="currentColor" stroke-linecap="round" stroke-linejoin="round">
        <path d="M19.1 13.4 18.2 23.5" stroke-width="3.4"/>
        <path d="m18.8 16.2-5.5 4.9-4-2.9M19.4 16.1l6.3 4.7 5.4-2.5M18.2 23.5l6.1 6 2.6 9.9M18.2 23.5l-5.8 7.9-5.8 5.7M31.1 18.3l4.8 21.2" stroke-width="2.6"/>
        <path d="M5.6 40.5 42.3 34.4" stroke-width="2.25"/>
      </g>
    </symbol>
    <symbol id="run" viewBox="0 0 48 48">
      <circle cx="29.2" cy="8.5" r="2.8" fill="currentColor"/>
      <g fill="none" stroke="currentColor" stroke-linecap="round" stroke-linejoin="round">
        <path d="m26.5 13.2-5.7 11.1" stroke-width="3.4"/>
        <path d="m25 16.4-6.3 1.6-4.4-3.5M25.8 15.7l5.7 4.4 5-3.7M20.8 24.3l8.1 5.8 10.5-.3M20.8 24.3l-5.6 7.2-8 5.6" stroke-width="2.6"/>
      </g>
    </symbol>
    <symbol id="cairn" viewBox="0 0 48 48">
      <g fill="none" stroke="currentColor" stroke-linecap="round" stroke-linejoin="round" stroke-width="2.25">
        <path d="M8 38.5h25.5c4.8 0 7.4-1.3 10.5-4.8-4.8-.6-8.4-.6-12.2.2L25 36.1"/>
        <path d="M11 33.5c.2-3.6 3.5-5.6 10.5-5.6s10.3 2 10.5 5.6M14.8 26.5c.2-3.4 2.5-5.3 6.7-5.3s6.5 1.9 6.7 5.3M17.8 19.7c.2-2.8 1.5-4.4 3.9-4.4s3.8 1.6 4 4.4"/>
      </g>
    </symbol>
    <filter id="shadow" x="-20%" y="-20%" width="140%" height="150%">
      <feDropShadow dx="0" dy="12" stdDeviation="18" flood-color="#0E1D1A" flood-opacity=".12"/>
    </filter>
  </defs>
  <rect width="1600" height="980" fill="#ECEDE7"/>
  <rect width="1600" height="176" fill="#10211E"/>
  <text x="72" y="76" fill="#F4F2E8" font-family="-apple-system,BlinkMacSystemFont,'Segoe UI',sans-serif" font-size="42" font-weight="700">Home action icon review</text>
  <text x="72" y="126" fill="#AFC2B8" font-family="-apple-system,BlinkMacSystemFont,'Segoe UI',sans-serif" font-size="22">One coherent candidate family · review only · 48 × 48 source grid</text>

  <g font-family="-apple-system,BlinkMacSystemFont,'Segoe UI',sans-serif">
    <g transform="translate(65 230)">
      <rect width="470" height="650" rx="32" fill="#F8F7F2" filter="url(#shadow)"/>
      <rect x="145" y="66" width="180" height="180" rx="48" fill="#E4E9DF"/>
      <use href="#hike" x="175" y="96" width="120" height="120" style="color:#24453E"/>
      <text x="235" y="312" fill="#18352F" font-size="34" font-weight="700" text-anchor="middle">Hike</text>
      <text x="48" y="368" fill="#587068" font-size="19">Uphill stride + planted pole</text>
      <text x="48" y="412" fill="#587068" font-size="19">Weighted torso, reduced anatomy</text>
      <text x="48" y="456" fill="#587068" font-size="19">No decorative motion marks</text>
      <line x1="48" y1="506" x2="422" y2="506" stroke="#D7DED5"/>
      <text x="48" y="556" fill="#789087" font-size="16" font-weight="700" letter-spacing="2">READ</text>
      <text x="48" y="594" fill="#18352F" font-size="21">A deliberate climb, not a generic walk</text>
    </g>
    <g transform="translate(565 230)">
      <rect width="470" height="650" rx="32" fill="#F8F7F2" filter="url(#shadow)"/>
      <rect x="145" y="66" width="180" height="180" rx="48" fill="#E4E9DF"/>
      <use href="#run" x="175" y="96" width="120" height="120" style="color:#24453E"/>
      <text x="235" y="312" fill="#18352F" font-size="34" font-weight="700" text-anchor="middle">Run</text>
      <text x="48" y="368" fill="#587068" font-size="19">Forward lean + open airborne stride</text>
      <text x="48" y="412" fill="#587068" font-size="19">Clear counter-swinging arms</text>
      <text x="48" y="456" fill="#587068" font-size="19">Speed carried by posture alone</text>
      <line x1="48" y1="506" x2="422" y2="506" stroke="#D7DED5"/>
      <text x="48" y="556" fill="#789087" font-size="16" font-weight="700" letter-spacing="2">READ</text>
      <text x="48" y="594" fill="#18352F" font-size="21">Immediate running action at a glance</text>
    </g>
    <g transform="translate(1065 230)">
      <rect width="470" height="650" rx="32" fill="#F8F7F2" filter="url(#shadow)"/>
      <rect x="145" y="66" width="180" height="180" rx="48" fill="#E4E9DF"/>
      <use href="#cairn" x="175" y="96" width="120" height="120" style="color:#24453E"/>
      <text x="235" y="312" fill="#18352F" font-size="34" font-weight="700" text-anchor="middle">Leave a Cairn</text>
      <text x="48" y="368" fill="#587068" font-size="19">Accepted Family B stone stack</text>
      <text x="48" y="412" fill="#587068" font-size="19">Grounded placement gesture</text>
      <text x="48" y="456" fill="#587068" font-size="19">Preserves the approved anchor</text>
      <line x1="48" y1="506" x2="422" y2="506" stroke="#D7DED5"/>
      <text x="48" y="556" fill="#789087" font-size="16" font-weight="700" letter-spacing="2">READ</text>
      <text x="48" y="594" fill="#18352F" font-size="21">A placed cairn, not a map pin</text>
    </g>
  </g>
  <text x="800" y="934" fill="#6B7D76" font-family="-apple-system,BlinkMacSystemFont,'Segoe UI',sans-serif" font-size="17" text-anchor="middle">Shared round terminals · compact silhouettes · currentColor-ready · no production integration</text>
</svg>
